<?xml version="1.0" encoding="utf-8"?>
<!-- Generator: Adobe Illustrator 26.3.1, SVG Export Plug-In . SVG Version: 6.00 Build 0)  -->
<svg version="1.1" id="Layer_1" xmlns="http://www.w3.org/2000/svg" xmlns:xlink="http://www.w3.org/1999/xlink" x="0px" y="0px"
	 viewBox="0 0 1000 1000" style="enable-background:new 0 0 1000 1000;" xml:space="preserve">
<style type="text/css">
	.st0{fill:#0F9A6B;}
</style>
<path class="st0" d="M867.9,500.5c0-61.9-0.2-123.9,0.2-185.8c0.1-9.4-3.1-16.8-8.6-23.8c-4.8-6.1-10.6-11.2-17-15.7
	c-12.4-8.6-26.1-14.7-39.1-22.2c-28.3-16.3-56.5-32.7-84.9-48.8c-55.4-31.4-110.9-62.7-166.4-94c-12.4-7-24.9-13.6-37.4-20.5
	c-1.6-0.9-3.1-1.2-4.9-1.4c-14.2-1.2-27.6,0.5-39.3,9.5c-0.7,0.6-1.7,0.8-2.5,1.3c-28.7,15.2-56.6,31.8-85.2,47.2
	c-9.2,5-18.1,10.8-27.2,16.1c-62.5,36-125,71.9-188,107c-11.9,6.6-22.8,14.7-31.1,25.9c-2.9,3.9-4.9,8-4.5,13
	c0.3,4.2,0.1,8.5,0.1,12.8c0,124,0,248.1,0,372.1c0,2.5,0.7,4.5,2,6.6c8.4,12.8,19.9,22.4,32.7,30.4c15.7,9.8,32.6,17.3,48.6,26.4
	c58.7,33.7,117.4,67.3,176.1,100.8c26.7,15.3,53.6,30.2,80.3,45.6c10.2,5.9,20.7,9.7,32.7,8.2c3.9-0.5,7.7-0.1,11.4-2.2
	c16.2-9.1,32.7-17.7,48.8-26.8c59.1-33.6,118.1-67.4,177.1-101.1c28.4-16.2,56.8-32.2,85.2-48.3c9.6-5.4,20-9.7,27.1-18.7
	c3.8-4.8,7.4-9.9,11.3-14.6c1.9-2.2,2.6-4.4,2.6-7.3C867.9,628.5,868,564.5,867.9,500.5L867.9,500.5z M816.7,316.3
	c5.5,0.7,6.6,2.4,4.4,7.6c-6.8,16.7-13.6,33.3-20.4,49.9c-20.6,50.4-41.1,100.8-61.6,151.2c-5.5,13.6-11.1,27.1-16.6,40.7
	c-0.6,1.5-1.1,3.3-2.8,3.6c-1.3,0.2-1.8-1.5-2.5-2.5C665,489.9,612.9,413.1,560.8,336.2c-9.8-14.5-19.6-29-29.4-43.5
	c-1.2-1.8-3.9-3.7-3.1-5.5c1-2.1,4.2-1.4,6.1-1.4c16.9,1.8,33.3,3.4,49.8,5.2c24.8,2.6,49.6,5.3,74.4,8c24.9,2.7,49.9,5.6,74.8,8.3
	c22.6,2.4,45.2,4.6,67.8,7C806.4,314.9,811.6,315.6,816.7,316.3z M520.7,127.9c50,28.5,99.9,57,149.9,85.5
	c39.6,22.6,79.2,45.1,118.8,67.7c1.8,1,3.5,2,5.4,3.2c-4.2,3.6-8.4,4.8-13.7,4c-27.1-4.1-54.4-7.3-81.7-10.1
	c-31.9-3.3-63.7-6.7-95.5-10.2c-26.7-2.9-53.3-5.9-80-8.8c-1.4-0.2-2.8-0.3-4.2-0.6c-5.9-0.9-7.3-2.4-7.3-8.4
	c0-15.3,0.1-30.6,0.1-46c-0.1-23.2-0.3-46.4-0.5-69.6c0-0.6,0-1.3,0-1.9C512.1,125.7,514.4,124.3,520.7,127.9z M494.2,300.3
	c4.8-6.3,7.2-6.3,11.7,0.3c16.5,24.3,32.9,48.6,49.4,72.9c18.4,27.2,36.8,54.3,55.3,81.4c28,41.1,56,82.1,84.1,123.2
	c1.2,1.7,2.4,3.4,1.4,5.6c-0.9,2-2.6,2-4.4,2c-26.5-0.1-53.1-0.3-79.6-0.3c-73.8-0.1-147.5-0.1-221.3-0.1c-25.4,0-50.7,0-76.1,0
	c-4.1,0-8.2-0.4-13.3-0.7c9.2-13.5,17.7-26.2,26.3-38.8c16.1-23.6,32.1-47.3,48.2-70.9c26.6-39.1,53.2-78.2,79.8-117.4
	c12.7-18.7,25.2-37.4,37.8-56.1C493.6,301,493.9,300.6,494.2,300.3z M370.6,189.9c35.6-20.3,71.2-40.5,106.9-60.7
	c8.4-4.8,10.1-3.7,10.1,6.2c0,17.4-0.2,34.7-0.2,52.1c0,20.4,0.2,40.7,0.2,61.1c0,7.9-1,9-8.7,9.9c-30.4,3.3-60.8,6.7-91.3,9.9
	c-40.6,4.3-81.2,8.6-121.8,12.9c-14.9,1.6-29.8,3.1-44.7,4.8c-2.6,0.3-5.3,0.8-7.8,1.8c-3.9,1.5-7,0.4-10.3-2.6
	C259.4,253.2,315,221.5,370.6,189.9z M183.7,315.3c5.5-0.7,11-1.3,16.5-1.8c20.5-2.1,41.1-4.2,61.6-6.3c25.6-2.7,51.2-5.3,76.8-8
	c12.2-1.3,24.5-2.5,36.7-3.8c25.9-2.7,51.7-5.5,77.6-8.2c5.2-0.5,10.4-1,15.5-1.3c1.2-0.1,2.8-0.5,3.5,0.7c0.8,1.4-0.8,2.2-1.4,3.2
	c-21.9,32.3-43.7,64.6-65.7,96.8c-7.3,10.7-15.1,21.1-22.1,31.9c-26.3,40.5-54.2,79.9-81,120.1c-7.2,10.8-14.5,21.4-22.4,32.9
	c-4.6-11.4-8.8-21.9-13.1-32.3c-18.5-45.9-37-91.9-55.5-137.8c-10.1-25.1-20.4-50.3-30.6-75.4c-0.4-1-0.8-2.1-1.1-3.1
	C177.4,318.1,178.7,316,183.7,315.3z M166.6,672.2c-2.9,1.6-3.8,0.9-3.7-2.3c0.1-15.6,0.1-31.3,0.1-46.9c0-35.9,0-71.7,0-107.6l0,0
	c0-50.9,0-101.8,0-152.6c0-1.4-1-3.6,1.1-4.1c1.9-0.5,2.5,1.6,3.1,3c11.2,27.8,22.3,55.6,33.6,83.4c18.2,44.8,36.5,89.6,54.7,134.5
	c0.5,1.2,0.9,2.4,1.4,3.5c4.1,10.6,3.5,13.1-5.4,20.3c-14.7,11.9-29.7,23.6-44,35.9c-10.8,9.3-21.8,18.2-32.6,27.5
	C172.3,668.9,169.5,670.6,166.6,672.2z M455.7,858.5c-7.7-4.4-15.4-8.6-23.1-13c-14.8-8.4-29.7-16.8-44.5-25.2
	c-57.7-32.8-115.4-65.6-173.1-98.4c-10.5-6-21.1-11.9-31.6-18c-6.7-3.9-6.9-5.7-1-10.6c28.7-24,57.5-47.9,86.3-71.8
	c4.4-3.6,7.3-3.2,10.8,1.4c32.5,42.2,64.9,84.4,97.4,126.5c26.8,34.9,53.7,69.8,80.5,104.7c0.8,1,1.5,2,2.2,2.9
	C458.9,859.6,457.6,859.6,455.7,858.5z M508.1,857.1c-8.2,10.7-8.6,10.8-16.6,0.3c-34.5-44.8-68.9-89.7-103.3-134.5
	c-25.8-33.5-51.6-67-77.4-100.5c-1.4-1.9-3-3.6-4.6-5.4c-1.2-1.4-2-2.9-1.1-4.8c0.9-1.8,2.5-2.2,4.4-1.7c21.2,0,42.3,0,63.5,0
	c41.5,0,82.9-0.3,124.4,0.1c61.3,0.6,122.5-0.1,183.8,0.4c2.5,0,5-0.5,7.5-0.7c2.2-0.2,4.2,0.1,5.4,2.1c1.2,2.1,0.2,3.9-1.1,5.6
	c-20.5,25.1-39.7,51.1-59.6,76.6c-23,29.5-45.8,59.2-68.7,88.8C545.8,808,526.9,832.5,508.1,857.1z M817.7,703
	c-10,5.8-19.9,11.5-29.9,17.2c-15.5,8.8-31.1,17.5-46.5,26.3C682,780.3,622.9,814,563.7,847.8c-6.1,3.5-12.3,6.9-18.5,10.3
	c-1.1,0.6-2.3,2.1-3.8,0.7c-1.8-1.8,0.3-2.9,1.1-3.9c26.5-34.6,53-69.1,79.5-103.6c32-41.7,64-83.4,96.1-125.1
	c7.2-9.3,7.9-9.2,16.9-1.7c26.2,21.8,52.6,43.4,78.9,65.1c2.1,1.7,4,3.5,6,5.4c0.9,0.9,1.8,1.8,1.9,3.6
	C821.5,700.7,819.6,701.9,817.7,703z M836,669.4c0,1.2,0,2.4,0,4.9c-13.1-10.8-25.2-20.7-37.3-30.6c-17.9-14.7-35.9-29.5-53.8-44.2
	c-5.4-4.4-5.9-6.3-3.3-12.6c21.1-51.7,42.1-103.4,63.2-155.1c8.5-20.7,16.9-41.5,25.4-62.2c1.1-2.8,1.8-7.8,4.6-7.3
	c2.7,0.5,1.2,5.5,1.2,8.4C836,470.3,836,569.9,836,669.4z"/>
</svg>
